<svg xmlns="http://www.w3.org/2000/svg" viewBox="1353.68 639.20 165.00 165.00" fill="currentColor"><path fill-rule="nonzero" d="M1463.74 728.51 C1459.96 728.51 1456.90 725.44 1456.90 721.67 C1456.90 717.89 1459.96 714.82 1463.74 714.82 C1467.52 714.82 1470.58 717.89 1470.58 721.67 C1470.58 725.44 1467.52 728.51 1463.74 728.51 M1436.18 728.51 C1432.40 728.51 1429.34 725.44 1429.34 721.67 C1429.34 717.89 1432.40 714.82 1436.18 714.82 C1439.96 714.82 1443.02 717.89 1443.02 721.67 C1443.02 725.44 1439.96 728.51 1436.18 728.51 M1408.62 728.51 C1404.84 728.51 1401.78 725.44 1401.78 721.67 C1401.78 717.89 1404.84 714.82 1408.62 714.82 C1412.40 714.82 1415.46 717.89 1415.46 721.67 C1415.46 725.44 1412.40 728.51 1408.62 728.51 M1436.18 687.32 C1401.98 687.32 1374.26 702.71 1374.26 721.70 C1374.26 727.58 1376.92 733.11 1381.61 737.95 C1385.18 741.64 1386.46 747.00 1384.84 751.88 L1374.26 783.57 L1400.55 757.30 C1403.84 754.01 1408.59 752.60 1413.13 753.61 C1420.25 755.20 1428.03 756.07 1436.18 756.07 C1470.38 756.07 1498.10 740.68 1498.10 721.70 C1498.10 702.71 1470.38 687.32 1436.18 687.32Z"/></svg>